<?xml version="1.0" encoding="UTF-8"?>
<svg xmlns="http://www.w3.org/2000/svg" xmlns:xlink="http://www.w3.org/1999/xlink" viewBox="0 0 1920 1080">
  <defs>
    <style>
      .cls-1, .cls-2, .cls-3 {
        fill: none;
      }

      .cls-4 {
        fill: #fff;
        stroke: #657ca4;
        stroke-width: 5px;
      }

      .cls-4, .cls-2, .cls-3 {
        stroke-miterlimit: 10;
      }

      .cls-5 {
        fill: #95a4c0;
      }

      .cls-2 {
        stroke: #dadfe9;
      }

      .cls-2, .cls-3 {
        stroke-width: 6px;
      }

      .cls-6 {
        fill: #6179a2;
      }

      .cls-7 {
        fill: #8092b3;
      }

      .cls-8 {
        fill: #e4e8dd;
      }

      .cls-9 {
        fill: #4e6896;
      }

      .cls-10 {
        fill: #eaedf2;
      }

      .cls-11 {
        clip-path: url(#clippath-1);
      }

      .cls-12 {
        clip-path: url(#clippath-3);
      }

      .cls-13 {
        clip-path: url(#clippath-2);
      }

      .cls-14 {
        fill: #f8f8f8;
      }

      .cls-15 {
        fill: #93a3bf;
      }

      .cls-3 {
        stroke: #6179a2;
      }

      .cls-16 {
        fill: #e0dede;
      }

      .cls-17 {
        fill: #788caf;
      }

      .cls-18 {
        fill: #ebe9e9;
      }

      .cls-19 {
        clip-path: url(#clippath);
      }
    </style>
    <clipPath id="clippath">
      <path class="cls-1" d="M1432.29-208.58c-272.9,51.66-365.68,160.71-413.62,278.69-23.72,58.38-15.27,132.27-16.84,176.06-1.68,47.01-47.46,81.91-82.15,137.47-54.09,86.64-106.93,110.94-106.93,138.87s104.34,75.3,114.7,110.68c10.36,35.38,34.18,298.29,116.5,337.09,76.88,36.23,149.57,24.92,282.19-14.9,145.74-43.76,17.86,187.18-3.57,286.7-18.08,83.94-107.75,491.77-107.75,575.57,0,67.04,1328.12-5.59,1351.42-139.68,12.02-69.19-325.71-620.38-387.84-745.16-90.43-181.6-109.05-308.21-31.39-408.78,126.96-164.39,118.8-351.79,26.03-492.21-124.27-188.1-494.8-286.97-740.75-240.42Z"/>
    </clipPath>
    <clipPath id="clippath-1">
      <path class="cls-1" d="M1488.61-59.63c-190.53,39.83-284.64,131.58-318.11,222.53-16.56,45.01-17.99,78.99-19.08,112.75-1.17,36.24-1.96,72.21-20.68,121.26-27.68,72.56-112.06,99.06-112.06,120.6s104.79,78.43,112.02,105.71c7.23,27.28,30.06,237.41,90.88,257.7,74.39,24.81,100.8,17.29,193.39-13.41,101.75-33.73,19.54,115.24-11.62,201.18-25.36,69.93-196.56,388.52-196.56,453.13,0,51.68,1141.96-31.71,1158.23-135.08,8.39-53.33-284.22-450.82-327.6-547.01-63.13-140-82.76-227.11-28.53-304.64,88.63-126.72,61.44-301.26-3.33-409.52-86.76-145-345.22-221.09-516.93-185.2Z"/>
    </clipPath>
    <clipPath id="clippath-2">
      <path class="cls-1" d="M1567.91,47.93c-130.3,31.22-194.67,103.13-217.56,174.42-11.33,35.28-12.3,61.92-13.05,88.38-.8,28.4-1.34,56.6-14.14,95.05-18.93,56.87-76.64,77.65-76.64,94.53s71.67,61.48,76.61,82.86c4.94,21.38,20.56,186.09,62.16,201.99,50.88,19.45,68.94,13.55,132.26-10.51,69.59-26.44,13.37,90.33-7.95,157.69-17.35,54.81-134.43,304.53-134.43,355.17,0,40.51,781-24.85,792.12-105.87,5.74-41.8-194.38-353.36-224.05-428.76-43.18-109.73-56.6-178.02-19.51-238.78,60.62-99.33,42.02-236.13-2.28-320.98-59.33-113.66-236.1-173.3-353.54-145.16Z"/>
    </clipPath>
    <clipPath id="clippath-3">
      <path class="cls-1" d="M1597.6,114.05c-98.88,26.06-147.72,86.11-165.09,145.62-8.6,29.45-9.34,51.69-9.9,73.78-.61,23.71-1.02,47.25-10.73,79.35-14.37,47.48-58.16,64.82-58.16,78.92s57.22,29.12,60.97,46.97,10.65,156.77,42.21,170.05c38.61,16.24,54.19,12.57,102.24-7.52,52.8-22.07,40.33,62.01,39.4,121.19-.69,43.3-79.73,271.51-79.73,313.79,0,33.82,481.2-2.82,489.64-70.46,4.36-34.9-140.7-311.91-163.21-374.86-32.77-91.61-18.76-135.29,9.38-186.02,46-82.93,44.87-198.79,11.26-269.63-45.02-94.89-179.16-144.68-268.27-121.19Z"/>
    </clipPath>
  </defs>
  <g id="Layer_6">
    <rect class="cls-14" x="-130.03" y="-23" width="2677.19" height="1156.97"/>
  </g>
  <g id="Rush_Hour">
    <g class="cls-19">
      <rect class="cls-16" x="664.25" y="-71.51" width="1671.08" height="1521.92"/>
      <g>
        <rect class="cls-18" x="1623.95" y="219.69" width="35.12" height="65.23" rx="15.68" ry="15.68"/>
        <rect class="cls-18" x="1721.18" y="219.69" width="35.12" height="65.23" rx="15.68" ry="15.68"/>
        <rect class="cls-18" x="1721.18" y="70.43" width="35.12" height="65.23" rx="15.68" ry="15.68"/>
        <rect class="cls-18" x="1623.95" y="70.43" width="35.12" height="65.23" rx="15.68" ry="15.68"/>
        <rect class="cls-17" x="1631.64" y="47.15" width="116.98" height="251.1" rx="45.6" ry="45.6"/>
        <rect class="cls-6" x="1642.61" y="102.79" width="96.14" height="124.64" rx="18.72" ry="18.72"/>
        <g>
          <rect class="cls-9" x="1649.68" y="176.62" width="83.63" height="51.01" rx="18.72" ry="18.72"/>
          <rect class="cls-15" x="1656.25" y="185.02" width="70.45" height="36.44" rx="16.27" ry="16.27"/>
        </g>
        <path class="cls-15" d="M1718.5,280.33v17.85h-56.24v-17.85c0-3.54,2.7-6.41,6.04-6.41h44.16c3.33,0,6.04,2.87,6.04,6.41Z"/>
      </g>
      <g>
        <rect class="cls-18" x="1000.53" y="514.81" width="35.12" height="65.23" rx="15.68" ry="15.68" transform="translate(470.67 1565.51) rotate(-90)"/>
        <rect class="cls-18" x="1000.53" y="417.57" width="35.12" height="65.23" rx="15.68" ry="15.68" transform="translate(567.91 1468.28) rotate(-90)"/>
        <rect class="cls-18" x="851.27" y="417.57" width="35.12" height="65.23" rx="15.68" ry="15.68" transform="translate(418.64 1319.01) rotate(-90)"/>
        <rect class="cls-18" x="851.27" y="514.81" width="35.12" height="65.23" rx="15.68" ry="15.68" transform="translate(321.41 1416.25) rotate(-90)"/>
        <rect class="cls-17" x="880" y="373.25" width="116.98" height="251.1" rx="45.6" ry="45.6" transform="translate(439.68 1437.29) rotate(-90)"/>
        <rect class="cls-6" x="882.83" y="435.93" width="96.14" height="124.64" rx="18.72" ry="18.72" transform="translate(432.65 1429.15) rotate(-90)"/>
        <g>
          <rect class="cls-9" x="926.09" y="471.92" width="83.63" height="51.01" rx="18.72" ry="18.72" transform="translate(470.48 1465.34) rotate(-90)"/>
          <rect class="cls-15" x="933.8" y="479.23" width="70.45" height="36.44" rx="16.27" ry="16.27" transform="translate(471.58 1466.48) rotate(-90)"/>
        </g>
        <path class="cls-15" d="M1046.12,470.43h17.85s0,56.24,0,56.24h-17.85c-3.54,0-6.41-2.7-6.41-6.04v-44.16c0-3.33,2.87-6.04,6.41-6.04Z"/>
      </g>
      <g>
        <rect class="cls-18" x="1895.01" y="189.08" width="35.12" height="65.23" rx="15.68" ry="15.68" transform="translate(3825.14 443.39) rotate(180)"/>
        <rect class="cls-18" x="1895.01" y="338.35" width="35.12" height="65.23" rx="15.68" ry="15.68" transform="translate(3825.14 741.92) rotate(180)"/>
        <rect class="cls-17" x="1902.7" y="175.75" width="116.98" height="251.1" rx="45.6" ry="45.6" transform="translate(3922.38 602.61) rotate(180)"/>
        <rect class="cls-6" x="1912.57" y="246.57" width="96.14" height="124.64" rx="18.72" ry="18.72" transform="translate(3921.27 617.79) rotate(180)"/>
        <rect class="cls-9" x="1918" y="246.38" width="83.63" height="51.01" rx="18.72" ry="18.72" transform="translate(3919.63 543.76) rotate(180)"/>
      </g>
      <g>
        <rect class="cls-18" x="1895.77" y="732" width="35.12" height="65.23" rx="15.68" ry="15.68" transform="translate(3826.67 1529.22) rotate(-180)"/>
        <rect class="cls-18" x="1895.77" y="466.03" width="35.12" height="65.23" rx="15.68" ry="15.68" transform="translate(3826.67 997.29) rotate(-180)"/>
        <path class="cls-17" d="M1903.21,799.12v-325.06c0-14.09,10.76-25.51,24.04-25.51h4.43v17.85c0,3.54,2.71,6.41,6.04,6.41h44.16c3.33,0,6.04-2.87,6.04-6.41v-17.85s8.23,0,8.23,0c13.28,0,24.04,11.42,24.04,25.51v325.06c0,14.09-10.76,25.51-24.04,25.51h-68.9c-13.28,0-24.04-11.42-24.04-25.51Z"/>
        <rect class="cls-9" x="1913.89" y="541.38" width="96.14" height="124.64" rx="18.72" ry="18.72" transform="translate(3923.91 1207.41) rotate(-180)"/>
        <rect class="cls-6" x="1912.54" y="473" width="97.56" height="111.09" rx="25.17" ry="25.17" transform="translate(3922.65 1057.09) rotate(-180)"/>
        <rect class="cls-9" x="1917.97" y="472.8" width="83.63" height="51.01" rx="18.72" ry="18.72" transform="translate(3919.57 996.61) rotate(-180)"/>
        <rect class="cls-6" x="1913.97" y="612.81" width="96.14" height="205.34" rx="35.36" ry="35.36" transform="translate(3924.07 1430.97) rotate(-180)"/>
      </g>
      <g>
        <rect class="cls-18" x="1853.56" y="338.04" width="35.12" height="65.23" rx="15.68" ry="15.68"/>
        <rect class="cls-18" x="1756.33" y="338.04" width="35.12" height="65.23" rx="15.68" ry="15.68"/>
        <rect class="cls-18" x="1853.56" y="604.01" width="35.12" height="65.23" rx="15.68" ry="15.68"/>
        <rect class="cls-18" x="1756.33" y="604.01" width="35.12" height="65.23" rx="15.68" ry="15.68"/>
        <path class="cls-17" d="M1881.25,336.15v325.06c0,14.09-10.76,25.51-24.04,25.51h-4.43s0-17.85,0-17.85c0-3.54-2.71-6.41-6.04-6.41h-44.16c-3.33,0-6.04,2.87-6.04,6.41v17.85s-8.23,0-8.23,0c-13.28,0-24.04-11.42-24.04-25.51v-325.06c0-14.09,10.76-25.51,24.04-25.51h68.9c13.28,0,24.04,11.42,24.04,25.51Z"/>
        <rect class="cls-9" x="1774.44" y="469.24" width="96.14" height="124.64" rx="18.72" ry="18.72"/>
        <rect class="cls-6" x="1774.36" y="551.17" width="97.56" height="111.09" rx="25.17" ry="25.17"/>
        <g>
          <rect class="cls-9" x="1782.86" y="611.46" width="83.63" height="51.01" rx="18.72" ry="18.72"/>
          <rect class="cls-15" x="1789.43" y="619.86" width="70.45" height="36.44" rx="16.27" ry="16.27"/>
        </g>
        <rect class="cls-6" x="1774.36" y="317.11" width="96.14" height="205.34" rx="35.36" ry="35.36"/>
        <path class="cls-15" d="M1852.78,668.86v17.85s-56.24,0-56.24,0v-17.85c0-3.54,2.7-6.41,6.04-6.41h44.16c3.33,0,6.04,2.87,6.04,6.41Z"/>
      </g>
      <g>
        <rect class="cls-18" x="1258.67" y="786.99" width="35.12" height="65.23" rx="15.68" ry="15.68" transform="translate(456.62 2095.83) rotate(-90)"/>
        <rect class="cls-18" x="1258.67" y="689.75" width="35.12" height="65.23" rx="15.68" ry="15.68" transform="translate(553.86 1998.59) rotate(-90)"/>
        <rect class="cls-18" x="1109.4" y="689.75" width="35.12" height="65.23" rx="15.68" ry="15.68" transform="translate(404.6 1849.33) rotate(-90)"/>
        <rect class="cls-18" x="1109.4" y="786.99" width="35.12" height="65.23" rx="15.68" ry="15.68" transform="translate(307.36 1946.56) rotate(-90)"/>
        <rect class="cls-17" x="1138.13" y="645.43" width="116.98" height="251.1" rx="45.6" ry="45.6" transform="translate(425.63 1967.6) rotate(-90)"/>
        <rect class="cls-6" x="1140.96" y="708.11" width="96.14" height="124.64" rx="18.72" ry="18.72" transform="translate(418.6 1959.46) rotate(-90)"/>
        <g>
          <rect class="cls-9" x="1184.23" y="744.11" width="83.63" height="51.01" rx="18.72" ry="18.72" transform="translate(456.43 1995.65) rotate(-90)"/>
          <rect class="cls-15" x="1191.94" y="751.41" width="70.45" height="36.44" rx="16.27" ry="16.27" transform="translate(457.53 1996.8) rotate(-90)"/>
        </g>
        <path class="cls-15" d="M1304.25,742.61h17.85s0,56.24,0,56.24h-17.85c-3.54,0-6.41-2.7-6.41-6.04v-44.16c0-3.33,2.87-6.04,6.41-6.04Z"/>
      </g>
      <g>
        <rect class="cls-18" x="1797.58" y="18.41" width="35.12" height="65.23" rx="15.68" ry="15.68" transform="translate(1866.17 -1764.12) rotate(90)"/>
        <rect class="cls-18" x="1797.58" y="115.65" width="35.12" height="65.23" rx="15.68" ry="15.68" transform="translate(1963.41 -1666.88) rotate(90)"/>
        <rect class="cls-17" x="1836.26" y="-25.91" width="116.98" height="251.1" rx="45.6" ry="45.6" transform="translate(1994.4 -1795.11) rotate(90)"/>
        <rect class="cls-6" x="1854.27" y="37.87" width="96.14" height="124.64" rx="18.72" ry="18.72" transform="translate(2002.54 -1802.15) rotate(90)"/>
        <g>
          <rect class="cls-9" x="1823.51" y="75.51" width="83.63" height="51.01" rx="18.72" ry="18.72" transform="translate(1966.34 -1764.31) rotate(90)"/>
          <rect class="cls-15" x="1828.98" y="82.77" width="70.45" height="36.44" rx="16.27" ry="16.27" transform="translate(1965.2 -1763.21) rotate(90)"/>
        </g>
        <path class="cls-15" d="M1787.12,128.01h-17.85s0-56.24,0-56.24h17.85c3.54,0,6.41,2.7,6.41,6.04v44.16c0,3.33-2.87,6.04-6.41,6.04Z"/>
      </g>
      <g>
        <rect class="cls-18" x="856.6" y="559.62" width="35.12" height="65.23" rx="15.68" ry="15.68" transform="translate(281.93 1466.4) rotate(-90)"/>
        <rect class="cls-18" x="856.6" y="656.85" width="35.12" height="65.23" rx="15.68" ry="15.68" transform="translate(184.7 1563.63) rotate(-90)"/>
        <rect class="cls-18" x="1122.57" y="559.62" width="35.12" height="65.23" rx="15.68" ry="15.68" transform="translate(547.9 1732.36) rotate(-90)"/>
        <rect class="cls-18" x="1122.57" y="656.85" width="35.12" height="65.23" rx="15.68" ry="15.68" transform="translate(450.66 1829.59) rotate(-90)"/>
        <path class="cls-17" d="M839.65,582.11h325.06c14.09,0,25.51,10.76,25.51,24.04v4.43s-17.85,0-17.85,0c-3.54,0-6.41,2.71-6.41,6.04v44.16c0,3.33,2.87,6.04,6.41,6.04h17.85s0,8.23,0,8.23c0,13.28-11.42,24.04-25.51,24.04h-325.06c-14.09,0-25.51-10.76-25.51-24.04v-68.9c0-13.28,11.42-24.04,25.51-24.04Z"/>
        <rect class="cls-9" x="987" y="578.53" width="96.14" height="124.64" rx="18.72" ry="18.72" transform="translate(394.22 1675.92) rotate(-90)"/>
        <rect class="cls-6" x="1061.45" y="584.67" width="97.56" height="111.09" rx="25.17" ry="25.17" transform="translate(470.01 1750.45) rotate(-90)"/>
        <g>
          <rect class="cls-9" x="1098.65" y="613.18" width="83.63" height="51.01" rx="18.72" ry="18.72" transform="translate(501.79 1779.15) rotate(-90)"/>
          <rect class="cls-15" x="1106.36" y="620.49" width="70.45" height="36.44" rx="16.27" ry="16.27" transform="translate(502.88 1780.29) rotate(-90)"/>
        </g>
        <rect class="cls-6" x="875.22" y="538.26" width="96.14" height="205.34" rx="35.36" ry="35.36" transform="translate(282.36 1564.22) rotate(-90)"/>
        <path class="cls-15" d="M1172.37,610.58h17.85s0,56.24,0,56.24h-17.85c-3.54,0-6.41-2.7-6.41-6.04v-44.16c0-3.33,2.87-6.04,6.41-6.04Z"/>
      </g>
      <g>
        <rect class="cls-18" x="912.01" y="70.12" width="35.12" height="65.23" rx="15.68" ry="15.68"/>
        <rect class="cls-18" x="814.77" y="70.12" width="35.12" height="65.23" rx="15.68" ry="15.68"/>
        <rect class="cls-18" x="912.01" y="336.08" width="35.12" height="65.23" rx="15.68" ry="15.68"/>
        <rect class="cls-18" x="814.77" y="336.08" width="35.12" height="65.23" rx="15.68" ry="15.68"/>
        <path class="cls-17" d="M939.69,68.22v325.06c0,14.09-10.76,25.51-24.04,25.51h-4.43s0-17.85,0-17.85c0-3.54-2.71-6.41-6.04-6.41h-44.16c-3.33,0-6.04,2.87-6.04,6.41v17.85s-8.23,0-8.23,0c-13.28,0-24.04-11.42-24.04-25.51V68.22c0-14.09,10.76-25.51,24.04-25.51h68.9c13.28,0,24.04,11.42,24.04,25.51Z"/>
        <rect class="cls-9" x="832.88" y="201.32" width="96.14" height="124.64" rx="18.72" ry="18.72"/>
        <rect class="cls-6" x="832.8" y="283.25" width="97.56" height="111.09" rx="25.17" ry="25.17"/>
        <g>
          <rect class="cls-9" x="841.3" y="343.54" width="83.63" height="51.01" rx="18.72" ry="18.72"/>
          <rect class="cls-15" x="847.87" y="351.94" width="70.45" height="36.44" rx="16.27" ry="16.27"/>
        </g>
        <rect class="cls-6" x="832.8" y="49.19" width="96.14" height="205.34" rx="35.36" ry="35.36"/>
        <path class="cls-15" d="M911.22,400.94v17.85s-56.24,0-56.24,0v-17.85c0-3.54,2.7-6.41,6.04-6.41h44.16c3.33,0,6.04,2.87,6.04,6.41Z"/>
      </g>
      <g>
        <rect class="cls-18" x="1182.23" y="191.07" width="35.12" height="65.23" rx="15.68" ry="15.68"/>
        <rect class="cls-18" x="1084.99" y="191.07" width="35.12" height="65.23" rx="15.68" ry="15.68"/>
        <rect class="cls-18" x="1182.23" y="457.03" width="35.12" height="65.23" rx="15.68" ry="15.68"/>
        <rect class="cls-18" x="1084.99" y="457.03" width="35.12" height="65.23" rx="15.68" ry="15.68"/>
        <path class="cls-17" d="M1209.91,189.17v325.06c0,14.09-10.76,25.51-24.04,25.51h-4.43s0-17.85,0-17.85c0-3.54-2.71-6.41-6.04-6.41h-44.16c-3.33,0-6.04,2.87-6.04,6.41v17.85s-8.23,0-8.23,0c-13.28,0-24.04-11.42-24.04-25.51V189.17c0-14.09,10.76-25.51,24.04-25.51h68.9c13.28,0,24.04,11.42,24.04,25.51Z"/>
        <rect class="cls-9" x="1103.1" y="322.27" width="96.14" height="124.64" rx="18.72" ry="18.72"/>
        <rect class="cls-6" x="1103.02" y="404.2" width="97.56" height="111.09" rx="25.17" ry="25.17"/>
        <g>
          <rect class="cls-9" x="1111.52" y="464.48" width="83.63" height="51.01" rx="18.72" ry="18.72"/>
          <rect class="cls-15" x="1118.09" y="472.89" width="70.45" height="36.44" rx="16.27" ry="16.27"/>
        </g>
        <rect class="cls-6" x="1103.02" y="170.14" width="96.14" height="205.34" rx="35.36" ry="35.36"/>
        <path class="cls-15" d="M1181.44,521.89v17.85s-56.24,0-56.24,0v-17.85c0-3.54,2.7-6.41,6.04-6.41h44.16c3.33,0,6.04,2.87,6.04,6.41Z"/>
      </g>
      <g>
        <rect class="cls-18" x="994.2" y="-1.19" width="35.12" height="65.23" rx="15.68" ry="15.68" transform="translate(1043.18 -980.34) rotate(90)"/>
        <rect class="cls-18" x="994.2" y="96.04" width="35.12" height="65.23" rx="15.68" ry="15.68" transform="translate(1140.42 -883.11) rotate(90)"/>
        <rect class="cls-18" x="1143.46" y="96.04" width="35.12" height="65.23" rx="15.68" ry="15.68" transform="translate(1289.68 -1032.37) rotate(90)"/>
        <rect class="cls-18" x="1143.46" y="-1.19" width="35.12" height="65.23" rx="15.68" ry="15.68" transform="translate(1192.45 -1129.61) rotate(90)"/>
        <rect class="cls-17" x="1032.88" y="-45.51" width="116.98" height="251.1" rx="45.6" ry="45.6" transform="translate(1171.41 -1011.33) rotate(90)"/>
        <rect class="cls-6" x="1050.89" y="18.27" width="96.14" height="124.64" rx="18.72" ry="18.72" transform="translate(1179.55 -1018.37) rotate(90)"/>
        <g>
          <rect class="cls-9" x="1020.13" y="55.91" width="83.63" height="51.01" rx="18.72" ry="18.72" transform="translate(1143.36 -980.53) rotate(90)"/>
          <rect class="cls-15" x="1025.6" y="63.17" width="70.45" height="36.44" rx="16.27" ry="16.27" transform="translate(1142.21 -979.44) rotate(90)"/>
        </g>
        <path class="cls-15" d="M983.74,108.41h-17.85s0-56.24,0-56.24h17.85c3.54,0,6.41,2.7,6.41,6.04v44.16c0,3.33-2.87,6.04-6.41,6.04Z"/>
      </g>
      <g>
        <rect class="cls-18" x="994.96" y="788.05" width="35.12" height="65.23" rx="15.68" ry="15.68" transform="translate(191.85 1833.18) rotate(-90)"/>
        <rect class="cls-18" x="994.96" y="690.82" width="35.12" height="65.23" rx="15.68" ry="15.68" transform="translate(289.09 1735.95) rotate(-90)"/>
        <rect class="cls-18" x="845.69" y="690.82" width="35.12" height="65.23" rx="15.68" ry="15.68" transform="translate(139.83 1586.68) rotate(-90)"/>
        <rect class="cls-18" x="845.69" y="788.05" width="35.12" height="65.23" rx="15.68" ry="15.68" transform="translate(42.59 1683.92) rotate(-90)"/>
        <rect class="cls-17" x="874.42" y="646.5" width="116.98" height="251.1" rx="45.6" ry="45.6" transform="translate(160.86 1704.96) rotate(-90)"/>
        <rect class="cls-6" x="877.25" y="709.17" width="96.14" height="124.64" rx="18.72" ry="18.72" transform="translate(153.83 1696.82) rotate(-90)"/>
        <g>
          <rect class="cls-9" x="920.52" y="745.17" width="83.63" height="51.01" rx="18.72" ry="18.72" transform="translate(191.66 1733.01) rotate(-90)"/>
          <rect class="cls-15" x="928.23" y="752.48" width="70.45" height="36.44" rx="16.27" ry="16.27" transform="translate(192.76 1734.15) rotate(-90)"/>
        </g>
        <path class="cls-15" d="M1040.54,743.68h17.85s0,56.24,0,56.24h-17.85c-3.54,0-6.41-2.7-6.41-6.04v-44.16c0-3.33,2.87-6.04,6.41-6.04Z"/>
      </g>
    </g>
  </g>
  <g id="Treasure_Hunt">
    <g class="cls-11">
      <rect class="cls-18" x="891.6" y="-109.02" width="1286.8" height="1293.91"/>
      <g>
        <g>
          <polygon class="cls-9" points="1379.75 381.75 1501.48 381.75 1482.48 416.11 1395.78 416.11 1379.75 381.75"/>
          <path class="cls-17" d="M1494.46,365.44h-107.91c4.79-8.15,12.13-16.31,22.32-16.31,20.39,0,41.35-.58,62.9,0,10.68.29,18.01,8.3,22.69,16.31Z"/>
          <path class="cls-17" d="M1405.25,410.29l4.4,60.11c-3.74-.07-7.2-.18-10.27-.33-21.55-1.07-19.58-59.78-19.58-59.78h25.45Z"/>
          <path class="cls-17" d="M1421.01,410.29h40.17l-4.39,60.01c-10.12.12-21.11.24-31.37.24l-4.41-60.25Z"/>
          <path class="cls-17" d="M1482.08,470.06c-2.81,0-6.02.02-9.51.05l4.37-59.83h24.58s.93,59.78-19.45,59.78Z"/>
          <path class="cls-5" d="M1425.42,470.53c-5.56,0-10.9-.04-15.78-.14l-4.4-60.11h15.77l4.41,60.25Z"/>
          <path class="cls-5" d="M1476.95,410.29l-4.37,59.83c-4.81.05-10.16.11-15.78.18l4.39-60.01h15.77Z"/>
          <path class="cls-5" d="M1501.26,381.75h-121.75s2.24-8.15,7.04-16.31h107.91c4.78,8.15,6.8,16.31,6.8,16.31Z"/>
        </g>
        <g>
          <g>
            <polygon class="cls-5" points="1411.14 267.62 1411.14 306.44 1435.29 317.54 1435.29 278.52 1411.14 267.62"/>
            <polygon class="cls-17" points="1467.79 267.78 1467.79 306.59 1435.19 317.69 1435.19 278.68 1467.79 267.78"/>
            <polygon class="cls-8" points="1411.14 267.62 1440.86 257.83 1467.79 267.78 1435.19 278.68 1411.14 267.62"/>
          </g>
          <g>
            <path class="cls-18" d="M1450.68,297.98v-.55c0-1.96.62-3.96,3.32-7.48,1.88-2.45,2.23-3.89,2.23-5.27,0-1.61-1-2.99-3.45-2.05s-3.54,2.94-3.87,5.35l-3.35,1.32c.14-2.38,1.64-7.36,7.28-9.48,5.17-1.94,6.85.95,6.86,3.58,0,2.37-.76,4.23-3.29,7.55-1.68,2.23-2.22,3.65-2.22,5.27v.31s-3.51,1.46-3.51,1.46Z"/>
            <polygon class="cls-18" points="1450.69 305.41 1450.69 300.38 1454.2 298.9 1454.21 303.89 1450.69 305.41"/>
          </g>
        </g>
        <g>
          <polygon class="cls-9" points="1384.62 137.97 1506.35 137.97 1487.35 172.34 1400.65 172.34 1384.62 137.97"/>
          <path class="cls-17" d="M1499.33,121.66h-107.91c4.79-8.15,12.13-16.31,22.32-16.31,20.39,0,41.35-.58,62.9,0,10.68.29,18.01,8.3,22.69,16.31Z"/>
          <path class="cls-17" d="M1410.12,166.51l4.4,60.11c-3.74-.07-7.2-.18-10.27-.33-21.55-1.07-19.58-59.78-19.58-59.78h25.45Z"/>
          <path class="cls-17" d="M1425.88,166.51h40.17l-4.39,60.01c-10.12.12-21.11.24-31.37.24l-4.41-60.25Z"/>
          <path class="cls-17" d="M1486.95,226.29c-2.81,0-6.02.02-9.51.05l4.37-59.83h24.58s.93,59.78-19.45,59.78Z"/>
          <path class="cls-5" d="M1430.29,226.76c-5.56,0-10.9-.04-15.78-.14l-4.4-60.11h15.77l4.41,60.25Z"/>
          <path class="cls-5" d="M1481.82,166.51l-4.37,59.83c-4.81.05-10.16.11-15.78.18l4.39-60.01h15.77Z"/>
          <path class="cls-5" d="M1506.13,137.97h-121.75s2.24-8.15,7.04-16.31h107.91c4.78,8.15,6.8,16.31,6.8,16.31Z"/>
        </g>
        <g>
          <g>
            <polygon class="cls-5" points="1416.01 23.85 1416.01 62.66 1440.16 73.76 1440.16 34.74 1416.01 23.85"/>
            <polygon class="cls-17" points="1472.66 24.01 1472.66 62.82 1440.06 73.92 1440.06 34.9 1472.66 24.01"/>
            <polygon class="cls-8" points="1416.01 23.85 1445.73 14.06 1472.66 24.01 1440.06 34.9 1416.01 23.85"/>
          </g>
          <g>
            <path class="cls-18" d="M1455.55,54.2v-.55c0-1.96.62-3.96,3.32-7.48,1.88-2.45,2.23-3.89,2.23-5.27,0-1.61-1-2.99-3.45-2.05s-3.54,2.94-3.87,5.35l-3.35,1.32c.14-2.38,1.64-7.36,7.28-9.48,5.17-1.94,6.85.95,6.86,3.58,0,2.37-.76,4.23-3.29,7.55-1.68,2.23-2.22,3.65-2.22,5.27v.31s-3.51,1.46-3.51,1.46Z"/>
            <polygon class="cls-18" points="1455.56 61.63 1455.56 56.6 1459.07 55.12 1459.08 60.12 1455.56 61.63"/>
          </g>
        </g>
        <g>
          <polygon class="cls-9" points="1378.95 625.67 1500.68 625.67 1481.68 660.04 1394.98 660.04 1378.95 625.67"/>
          <path class="cls-17" d="M1493.67,609.36h-107.91c4.79-8.15,12.13-16.31,22.32-16.31,20.39,0,41.35-.58,62.9,0,10.68.29,18.01,8.3,22.69,16.31Z"/>
          <path class="cls-17" d="M1404.45,654.21l4.4,60.11c-3.74-.07-7.2-.18-10.27-.33-21.55-1.07-19.58-59.78-19.58-59.78h25.45Z"/>
          <path class="cls-17" d="M1420.21,654.21h40.17l-4.39,60.01c-10.12.12-21.11.24-31.37.24l-4.41-60.25Z"/>
          <path class="cls-17" d="M1481.28,713.99c-2.81,0-6.02.02-9.51.05l4.37-59.83h24.58s.93,59.78-19.45,59.78Z"/>
          <path class="cls-5" d="M1424.62,714.46c-5.56,0-10.9-.04-15.78-.14l-4.4-60.11h15.77l4.41,60.25Z"/>
          <path class="cls-5" d="M1476.15,654.21l-4.37,59.83c-4.81.05-10.16.11-15.78.18l4.39-60.01h15.77Z"/>
          <path class="cls-5" d="M1500.46,625.67h-121.75s2.24-8.15,7.04-16.31h107.91c4.78,8.15,6.8,16.31,6.8,16.31Z"/>
        </g>
        <g>
          <g>
            <polygon class="cls-5" points="1410.34 511.55 1410.34 550.36 1434.49 561.46 1434.49 522.44 1410.34 511.55"/>
            <polygon class="cls-17" points="1466.99 511.71 1466.99 550.52 1434.39 561.62 1434.39 522.6 1466.99 511.71"/>
            <polygon class="cls-8" points="1410.34 511.55 1440.07 501.76 1466.99 511.71 1434.39 522.6 1410.34 511.55"/>
          </g>
          <g>
            <path class="cls-18" d="M1449.89,541.9v-.55c0-1.96.62-3.96,3.32-7.48,1.88-2.45,2.23-3.89,2.23-5.27,0-1.61-1-2.99-3.45-2.05s-3.54,2.94-3.87,5.35l-3.35,1.32c.14-2.38,1.64-7.36,7.28-9.48,5.17-1.94,6.85.95,6.86,3.58,0,2.37-.76,4.23-3.29,7.55-1.68,2.23-2.22,3.65-2.22,5.27v.31s-3.51,1.46-3.51,1.46Z"/>
            <polygon class="cls-18" points="1449.89 549.34 1449.89 544.3 1453.4 542.82 1453.41 547.82 1449.89 549.34"/>
          </g>
        </g>
        <g>
          <polygon class="cls-9" points="1373.92 869.89 1495.65 869.89 1476.65 904.26 1389.95 904.26 1373.92 869.89"/>
          <path class="cls-17" d="M1488.63,853.59h-107.91c4.79-8.15,12.13-16.31,22.32-16.31,20.39,0,41.35-.58,62.9,0,10.68.29,18.01,8.3,22.69,16.31Z"/>
          <path class="cls-17" d="M1399.41,898.43l4.4,60.11c-3.74-.07-7.2-.18-10.27-.33-21.55-1.07-19.58-59.78-19.58-59.78h25.45Z"/>
          <path class="cls-17" d="M1415.18,898.43h40.17l-4.39,60.01c-10.12.12-21.11.24-31.37.24l-4.41-60.25Z"/>
          <path class="cls-17" d="M1476.25,958.21c-2.81,0-6.02.02-9.51.05l4.37-59.83h24.58s.93,59.78-19.45,59.78Z"/>
          <path class="cls-5" d="M1419.59,958.68c-5.56,0-10.9-.04-15.78-.14l-4.4-60.11h15.77l4.41,60.25Z"/>
          <path class="cls-5" d="M1471.12,898.43l-4.37,59.83c-4.81.05-10.16.11-15.78.18l4.39-60.01h15.77Z"/>
          <path class="cls-5" d="M1495.43,869.89h-121.75s2.24-8.15,7.04-16.31h107.91c4.78,8.15,6.8,16.31,6.8,16.31Z"/>
        </g>
        <g>
          <polygon class="cls-9" points="1225.93 254.13 1347.66 254.13 1328.66 288.49 1241.96 288.49 1225.93 254.13"/>
          <path class="cls-17" d="M1340.64,237.82h-107.91c4.79-8.15,12.13-16.31,22.32-16.31,20.39,0,41.35-.58,62.9,0,10.68.29,18.01,8.3,22.69,16.31Z"/>
          <path class="cls-17" d="M1251.43,282.67l4.4,60.11c-3.74-.07-7.2-.18-10.27-.33-21.55-1.07-19.58-59.78-19.58-59.78h25.45Z"/>
          <path class="cls-17" d="M1267.19,282.67h40.17l-4.39,60.01c-10.12.12-21.11.24-31.37.24l-4.41-60.25Z"/>
          <path class="cls-17" d="M1328.26,342.44c-2.81,0-6.02.02-9.51.05l4.37-59.83h24.58s.93,59.78-19.45,59.78Z"/>
          <path class="cls-5" d="M1271.6,342.92c-5.56,0-10.9-.04-15.78-.14l-4.4-60.11h15.77l4.41,60.25Z"/>
          <path class="cls-5" d="M1323.13,282.67l-4.37,59.83c-4.81.05-10.16.11-15.78.18l4.39-60.01h15.77Z"/>
          <path class="cls-5" d="M1347.44,254.13h-121.75s2.24-8.15,7.04-16.31h107.91c4.78,8.15,6.8,16.31,6.8,16.31Z"/>
        </g>
        <g>
          <g>
            <polygon class="cls-5" points="1257.32 140.01 1257.32 178.82 1281.47 189.92 1281.47 150.9 1257.32 140.01"/>
            <polygon class="cls-17" points="1313.97 140.16 1313.97 178.98 1281.37 190.08 1281.37 151.06 1313.97 140.16"/>
            <polygon class="cls-8" points="1257.32 140.01 1287.04 130.22 1313.97 140.16 1281.37 151.06 1257.32 140.01"/>
          </g>
          <g>
            <path class="cls-18" d="M1296.87,170.36v-.55c0-1.96.62-3.96,3.32-7.48,1.88-2.45,2.23-3.89,2.23-5.27,0-1.61-1-2.99-3.45-2.05s-3.54,2.94-3.87,5.35l-3.35,1.32c.14-2.38,1.64-7.36,7.28-9.48,5.17-1.94,6.85.95,6.86,3.58,0,2.37-.76,4.23-3.29,7.55-1.68,2.23-2.22,3.65-2.22,5.27v.31s-3.51,1.46-3.51,1.46Z"/>
            <polygon class="cls-18" points="1296.87 177.79 1296.87 172.76 1300.38 171.28 1300.39 176.27 1296.87 177.79"/>
          </g>
        </g>
        <g>
          <polygon class="cls-9" points="1230.8 10.35 1352.53 10.35 1333.53 44.72 1246.83 44.72 1230.8 10.35"/>
          <path class="cls-17" d="M1256.3,38.89l4.4,60.11c-3.74-.07-7.2-.18-10.27-.33-21.55-1.07-19.58-59.78-19.58-59.78h25.45Z"/>
          <path class="cls-17" d="M1272.06,38.89h40.17l-4.39,60.01c-10.12.12-21.11.24-31.37.24l-4.41-60.25Z"/>
          <path class="cls-17" d="M1333.13,98.67c-2.81,0-6.02.02-9.51.05l4.37-59.83h24.58s.93,59.78-19.45,59.78Z"/>
          <path class="cls-5" d="M1276.47,99.14c-5.56,0-10.9-.04-15.78-.14l-4.4-60.11h15.77l4.41,60.25Z"/>
          <path class="cls-5" d="M1328,38.89l-4.37,59.83c-4.81.05-10.16.11-15.78.18l4.39-60.01h15.77Z"/>
          <path class="cls-5" d="M1352.31,10.35h-121.75s2.24-8.15,7.04-16.31h107.91c4.78,8.15,6.8,16.31,6.8,16.31Z"/>
        </g>
        <g>
          <polygon class="cls-9" points="1225.14 498.05 1346.87 498.05 1327.87 532.42 1241.16 532.42 1225.14 498.05"/>
          <path class="cls-17" d="M1339.85,481.75h-107.91c4.79-8.15,12.13-16.31,22.32-16.31,20.39,0,41.35-.58,62.9,0,10.68.29,18.01,8.3,22.69,16.31Z"/>
          <path class="cls-17" d="M1250.63,526.59l4.4,60.11c-3.74-.07-7.2-.18-10.27-.33-21.55-1.07-19.58-59.78-19.58-59.78h25.45Z"/>
          <path class="cls-17" d="M1266.4,526.59h40.17l-4.39,60.01c-10.12.12-21.11.24-31.37.24l-4.41-60.25Z"/>
          <path class="cls-17" d="M1327.46,586.37c-2.81,0-6.02.02-9.51.05l4.37-59.83h24.58s.93,59.78-19.45,59.78Z"/>
          <path class="cls-5" d="M1270.8,586.84c-5.56,0-10.9-.04-15.78-.14l-4.4-60.11h15.77l4.41,60.25Z"/>
          <path class="cls-5" d="M1322.33,526.59l-4.37,59.83c-4.81.05-10.16.11-15.78.18l4.39-60.01h15.77Z"/>
          <path class="cls-5" d="M1346.64,498.05h-121.75s2.24-8.15,7.04-16.31h107.91c4.78,8.15,6.8,16.31,6.8,16.31Z"/>
        </g>
        <g>
          <g>
            <polygon class="cls-5" points="1256.52 383.93 1256.52 422.74 1280.67 433.84 1280.67 394.83 1256.52 383.93"/>
            <polygon class="cls-17" points="1313.17 384.09 1313.17 422.9 1280.57 434 1280.57 394.98 1313.17 384.09"/>
            <polygon class="cls-8" points="1256.52 383.93 1286.25 374.14 1313.17 384.09 1280.57 394.98 1256.52 383.93"/>
          </g>
          <g>
            <path class="cls-18" d="M1296.07,414.28v-.55c0-1.96.62-3.96,3.32-7.48,1.88-2.45,2.23-3.89,2.23-5.27,0-1.61-1-2.99-3.45-2.05s-3.54,2.94-3.87,5.35l-3.35,1.32c.14-2.38,1.64-7.36,7.28-9.48,5.17-1.94,6.85.95,6.86,3.58,0,2.37-.76,4.23-3.29,7.55-1.68,2.23-2.22,3.65-2.22,5.27v.31s-3.51,1.46-3.51,1.46Z"/>
            <polygon class="cls-18" points="1296.07 421.72 1296.07 416.68 1299.59 415.21 1299.59 420.2 1296.07 421.72"/>
          </g>
        </g>
        <g>
          <polygon class="cls-9" points="1220.1 742.28 1341.83 742.28 1322.83 776.64 1236.13 776.64 1220.1 742.28"/>
          <path class="cls-17" d="M1334.81,725.97h-107.91c4.79-8.15,12.13-16.31,22.32-16.31,20.39,0,41.35-.58,62.9,0,10.68.29,18.01,8.3,22.69,16.31Z"/>
          <path class="cls-17" d="M1245.6,770.82l4.4,60.11c-3.74-.07-7.2-.18-10.27-.33-21.55-1.07-19.58-59.78-19.58-59.78h25.45Z"/>
          <path class="cls-17" d="M1261.36,770.82h40.17l-4.39,60.01c-10.12.12-21.11.24-31.37.24l-4.41-60.25Z"/>
          <path class="cls-17" d="M1322.43,830.59c-2.81,0-6.02.02-9.51.05l4.37-59.83h24.58s.93,59.78-19.45,59.78Z"/>
          <path class="cls-5" d="M1265.77,831.06c-5.56,0-10.9-.04-15.78-.14l-4.4-60.11h15.77l4.41,60.25Z"/>
          <path class="cls-5" d="M1317.3,770.82l-4.37,59.83c-4.81.05-10.16.11-15.78.18l4.39-60.01h15.77Z"/>
          <path class="cls-5" d="M1341.61,742.28h-121.75s2.24-8.15,7.04-16.31h107.91c4.78,8.15,6.8,16.31,6.8,16.31Z"/>
        </g>
        <g>
          <g>
            <polygon class="cls-5" points="1251.49 628.15 1251.49 666.96 1275.64 678.06 1275.64 639.05 1251.49 628.15"/>
            <polygon class="cls-17" points="1308.14 628.31 1308.14 667.12 1275.54 678.22 1275.54 639.21 1308.14 628.31"/>
            <polygon class="cls-8" points="1251.49 628.15 1281.21 618.36 1308.14 628.31 1275.54 639.21 1251.49 628.15"/>
          </g>
          <g>
            <path class="cls-18" d="M1291.03,658.51v-.55c0-1.96.62-3.96,3.32-7.48,1.88-2.45,2.23-3.89,2.23-5.27,0-1.61-1-2.99-3.45-2.05s-3.54,2.94-3.87,5.35l-3.35,1.32c.14-2.38,1.64-7.36,7.28-9.48,5.17-1.94,6.85.95,6.86,3.58,0,2.37-.76,4.23-3.29,7.55-1.68,2.23-2.22,3.65-2.22,5.27v.31s-3.51,1.46-3.51,1.46Z"/>
            <polygon class="cls-18" points="1291.04 665.94 1291.04 660.91 1294.55 659.43 1294.56 664.42 1291.04 665.94"/>
          </g>
        </g>
        <g>
          <polygon class="cls-9" points="1056.76 385.03 1178.49 385.03 1159.49 419.39 1072.79 419.39 1056.76 385.03"/>
          <path class="cls-17" d="M1171.47,368.72h-107.91c4.79-8.15,12.13-16.31,22.32-16.31,20.39,0,41.35-.58,62.9,0,10.68.29,18.01,8.3,22.69,16.31Z"/>
          <path class="cls-17" d="M1082.25,413.57l4.4,60.11c-3.74-.07-7.2-.18-10.27-.33-21.55-1.07-19.58-59.78-19.58-59.78h25.45Z"/>
          <path class="cls-17" d="M1098.02,413.57h40.17l-4.39,60.01c-10.12.12-21.11.24-31.37.24l-4.41-60.25Z"/>
          <path class="cls-17" d="M1159.09,473.34c-2.81,0-6.02.02-9.51.05l4.37-59.83h24.58s.93,59.78-19.45,59.78Z"/>
          <path class="cls-5" d="M1102.43,473.82c-5.56,0-10.9-.04-15.78-.14l-4.4-60.11h15.77l4.41,60.25Z"/>
          <path class="cls-5" d="M1153.96,413.57l-4.37,59.83c-4.81.05-10.16.11-15.78.18l4.39-60.01h15.77Z"/>
          <path class="cls-5" d="M1178.27,385.03h-121.75s2.24-8.15,7.04-16.31h107.91c4.78,8.15,6.8,16.31,6.8,16.31Z"/>
        </g>
        <g>
          <g>
            <polygon class="cls-5" points="1088.15 270.91 1088.15 309.72 1112.3 320.82 1112.3 281.8 1088.15 270.91"/>
            <polygon class="cls-17" points="1144.79 271.06 1144.79 309.88 1112.2 320.98 1112.2 281.96 1144.79 271.06"/>
            <polygon class="cls-8" points="1088.15 270.91 1117.87 261.11 1144.79 271.06 1112.2 281.96 1088.15 270.91"/>
          </g>
          <g>
            <path class="cls-18" d="M1127.69,301.26v-.55c0-1.96.62-3.96,3.32-7.48,1.88-2.45,2.23-3.89,2.23-5.27,0-1.61-1-2.99-3.45-2.05s-3.54,2.94-3.87,5.35l-3.35,1.32c.14-2.38,1.64-7.36,7.28-9.48,5.17-1.94,6.85.95,6.86,3.58,0,2.37-.76,4.23-3.29,7.55-1.68,2.23-2.22,3.65-2.22,5.27v.31s-3.51,1.46-3.51,1.46Z"/>
            <polygon class="cls-18" points="1127.7 308.69 1127.69 303.66 1131.21 302.18 1131.22 307.17 1127.7 308.69"/>
          </g>
        </g>
        <g>
          <polygon class="cls-9" points="1061.63 141.25 1183.36 141.25 1164.36 175.62 1077.66 175.62 1061.63 141.25"/>
          <path class="cls-17" d="M1176.34,124.94h-107.91c4.79-8.15,12.13-16.31,22.32-16.31,20.39,0,41.35-.58,62.9,0,10.68.29,18.01,8.3,22.69,16.31Z"/>
          <path class="cls-17" d="M1087.12,169.79l4.4,60.11c-3.74-.07-7.2-.18-10.27-.33-21.55-1.07-19.58-59.78-19.58-59.78h25.45Z"/>
          <path class="cls-17" d="M1102.89,169.79h40.17l-4.39,60.01c-10.12.12-21.11.24-31.37.24l-4.41-60.25Z"/>
          <path class="cls-17" d="M1163.96,229.57c-2.81,0-6.02.02-9.51.05l4.37-59.83h24.58s.93,59.78-19.45,59.78Z"/>
          <path class="cls-5" d="M1107.3,230.04c-5.56,0-10.9-.04-15.78-.14l-4.4-60.11h15.77l4.41,60.25Z"/>
          <path class="cls-5" d="M1158.83,169.79l-4.37,59.83c-4.81.05-10.16.11-15.78.18l4.39-60.01h15.77Z"/>
          <path class="cls-5" d="M1183.14,141.25h-121.75s2.24-8.15,7.04-16.31h107.91c4.78,8.15,6.8,16.31,6.8,16.31Z"/>
        </g>
        <g>
          <g>
            <polygon class="cls-5" points="1093.02 27.13 1093.02 65.94 1117.17 77.04 1117.17 38.02 1093.02 27.13"/>
            <polygon class="cls-17" points="1149.66 27.29 1149.66 66.1 1117.07 77.2 1117.07 38.18 1149.66 27.29"/>
            <polygon class="cls-8" points="1093.02 27.13 1122.74 17.34 1149.66 27.29 1117.07 38.18 1093.02 27.13"/>
          </g>
          <g>
            <path class="cls-18" d="M1132.56,57.48v-.55c0-1.96.62-3.96,3.32-7.48,1.88-2.45,2.23-3.89,2.23-5.27,0-1.61-1-2.99-3.45-2.05s-3.54,2.94-3.87,5.35l-3.35,1.32c.14-2.38,1.64-7.36,7.28-9.48,5.17-1.94,6.85.95,6.86,3.58,0,2.37-.76,4.23-3.29,7.55-1.68,2.23-2.22,3.65-2.22,5.27v.31s-3.51,1.46-3.51,1.46Z"/>
            <polygon class="cls-18" points="1132.57 64.92 1132.56 59.88 1136.08 58.4 1136.08 63.4 1132.57 64.92"/>
          </g>
        </g>
        <g>
          <polygon class="cls-9" points="1055.96 628.95 1177.69 628.95 1158.69 663.32 1071.99 663.32 1055.96 628.95"/>
          <path class="cls-17" d="M1170.67,612.65h-107.91c4.79-8.15,12.13-16.31,22.32-16.31,20.39,0,41.35-.58,62.9,0,10.68.29,18.01,8.3,22.69,16.31Z"/>
          <path class="cls-17" d="M1081.45,657.49l4.4,60.11c-3.74-.07-7.2-.18-10.27-.33-21.55-1.07-19.58-59.78-19.58-59.78h25.45Z"/>
          <path class="cls-17" d="M1097.22,657.49h40.17l-4.39,60.01c-10.12.12-21.11.24-31.37.24l-4.41-60.25Z"/>
          <path class="cls-17" d="M1158.29,717.27c-2.81,0-6.02.02-9.51.05l4.37-59.83h24.58s.93,59.78-19.45,59.78Z"/>
          <path class="cls-5" d="M1101.63,717.74c-5.56,0-10.9-.04-15.78-.14l-4.4-60.11h15.77l4.41,60.25Z"/>
          <path class="cls-5" d="M1153.16,657.49l-4.37,59.83c-4.81.05-10.16.11-15.78.18l4.39-60.01h15.77Z"/>
          <path class="cls-5" d="M1177.47,628.95h-121.75s2.24-8.15,7.04-16.31h107.91c4.78,8.15,6.8,16.31,6.8,16.31Z"/>
        </g>
        <g>
          <g>
            <polygon class="cls-5" points="1087.35 514.83 1087.35 553.64 1111.5 564.74 1111.5 525.73 1087.35 514.83"/>
            <polygon class="cls-17" points="1144 514.99 1144 553.8 1111.4 564.9 1111.4 525.88 1144 514.99"/>
            <polygon class="cls-8" points="1087.35 514.83 1117.07 505.04 1144 514.99 1111.4 525.88 1087.35 514.83"/>
          </g>
          <g>
            <path class="cls-18" d="M1126.89,545.18v-.55c0-1.96.62-3.96,3.32-7.48,1.88-2.45,2.23-3.89,2.23-5.27,0-1.61-1-2.99-3.45-2.05s-3.54,2.94-3.87,5.35l-3.35,1.32c.14-2.38,1.64-7.36,7.28-9.48,5.17-1.94,6.85.95,6.86,3.58,0,2.37-.76,4.23-3.29,7.55-1.68,2.23-2.22,3.65-2.22,5.27v.31s-3.51,1.46-3.51,1.46Z"/>
            <polygon class="cls-18" points="1126.9 552.62 1126.9 547.58 1130.41 546.11 1130.42 551.1 1126.9 552.62"/>
          </g>
        </g>
        <g>
          <polygon class="cls-9" points="1050.93 873.18 1172.66 873.18 1153.66 907.54 1066.96 907.54 1050.93 873.18"/>
          <path class="cls-17" d="M1165.64,856.87h-107.91c4.79-8.15,12.13-16.31,22.32-16.31,20.39,0,41.35-.58,62.9,0,10.68.29,18.01,8.3,22.69,16.31Z"/>
          <path class="cls-17" d="M1076.42,901.72l4.4,60.11c-3.74-.07-7.2-.18-10.27-.33-21.55-1.07-19.58-59.78-19.58-59.78h25.45Z"/>
          <path class="cls-17" d="M1092.19,901.72h40.17l-4.39,60.01c-10.12.12-21.11.24-31.37.24l-4.41-60.25Z"/>
          <path class="cls-17" d="M1153.26,961.49c-2.81,0-6.02.02-9.51.05l4.37-59.83h24.58s.93,59.78-19.45,59.78Z"/>
          <path class="cls-5" d="M1096.6,961.96c-5.56,0-10.9-.04-15.78-.14l-4.4-60.11h15.77l4.41,60.25Z"/>
          <path class="cls-5" d="M1148.12,901.72l-4.37,59.83c-4.81.05-10.16.11-15.78.18l4.39-60.01h15.77Z"/>
          <path class="cls-5" d="M1172.44,873.18h-121.75s2.24-8.15,7.04-16.31h107.91c4.78,8.15,6.8,16.31,6.8,16.31Z"/>
        </g>
        <g>
          <g>
            <polygon class="cls-5" points="1082.32 759.05 1082.32 797.86 1106.47 808.96 1106.47 769.95 1082.32 759.05"/>
            <polygon class="cls-17" points="1138.96 759.21 1138.96 798.02 1106.36 809.12 1106.36 770.11 1138.96 759.21"/>
            <polygon class="cls-8" points="1082.32 759.05 1112.04 749.26 1138.96 759.21 1106.36 770.11 1082.32 759.05"/>
          </g>
          <g>
            <path class="cls-18" d="M1121.86,789.41v-.55c0-1.96.62-3.96,3.32-7.48,1.88-2.45,2.23-3.89,2.23-5.27,0-1.61-1-2.99-3.45-2.05s-3.54,2.94-3.87,5.35l-3.35,1.32c.14-2.38,1.64-7.36,7.28-9.48,5.17-1.94,6.85.95,6.86,3.58,0,2.37-.76,4.23-3.29,7.55-1.68,2.23-2.22,3.65-2.22,5.27v.31s-3.51,1.46-3.51,1.46Z"/>
            <polygon class="cls-18" points="1121.87 796.84 1121.86 791.81 1125.38 790.33 1125.38 795.32 1121.87 796.84"/>
          </g>
        </g>
        <g>
          <polygon class="cls-9" points="892.18 280.16 1013.91 280.16 994.91 314.52 908.21 314.52 892.18 280.16"/>
          <path class="cls-17" d="M1006.89,263.85h-107.91c4.79-8.15,12.13-16.31,22.32-16.31,20.39,0,41.35-.58,62.9,0,10.68.29,18.01,8.3,22.69,16.31Z"/>
          <path class="cls-17" d="M917.67,308.7l4.4,60.11c-3.74-.07-7.2-.18-10.27-.33-21.55-1.07-19.58-59.78-19.58-59.78h25.45Z"/>
          <path class="cls-17" d="M933.44,308.7h40.17l-4.39,60.01c-10.12.12-21.11.24-31.37.24l-4.41-60.25Z"/>
          <path class="cls-17" d="M994.51,368.47c-2.81,0-6.02.02-9.51.05l4.37-59.83h24.58s.93,59.78-19.45,59.78Z"/>
          <path class="cls-5" d="M937.85,368.94c-5.56,0-10.9-.04-15.78-.14l-4.4-60.11h15.77l4.41,60.25Z"/>
          <path class="cls-5" d="M989.37,308.7l-4.37,59.83c-4.81.05-10.16.11-15.78.18l4.39-60.01h15.77Z"/>
          <path class="cls-5" d="M1013.69,280.16h-121.75s2.24-8.15,7.04-16.31h107.91c4.78,8.15,6.8,16.31,6.8,16.31Z"/>
        </g>
        <g>
          <g>
            <polygon class="cls-5" points="923.57 166.03 923.57 204.84 947.72 215.94 947.72 176.93 923.57 166.03"/>
            <polygon class="cls-17" points="980.21 166.19 980.21 205 947.61 216.1 947.61 177.09 980.21 166.19"/>
            <polygon class="cls-8" points="923.57 166.03 953.29 156.24 980.21 166.19 947.61 177.09 923.57 166.03"/>
          </g>
          <g>
            <path class="cls-18" d="M963.11,196.39v-.55c0-1.96.62-3.96,3.32-7.48,1.88-2.45,2.23-3.89,2.23-5.27,0-1.61-1-2.99-3.45-2.05s-3.54,2.94-3.87,5.35l-3.35,1.32c.14-2.38,1.64-7.36,7.28-9.48,5.17-1.94,6.85.95,6.86,3.58,0,2.37-.76,4.23-3.29,7.55-1.68,2.23-2.22,3.65-2.22,5.27v.31s-3.51,1.46-3.51,1.46Z"/>
            <polygon class="cls-18" points="963.12 203.82 963.11 198.79 966.63 197.31 966.63 202.3 963.12 203.82"/>
          </g>
        </g>
        <g>
          <polygon class="cls-9" points="897.05 36.38 1018.78 36.38 999.78 70.74 913.08 70.74 897.05 36.38"/>
          <path class="cls-17" d="M1011.76,20.07h-107.91c4.79-8.15,12.13-16.31,22.32-16.31,20.39,0,41.35-.58,62.9,0,10.68.29,18.01,8.3,22.69,16.31Z"/>
          <path class="cls-17" d="M922.54,64.92l4.4,60.11c-3.74-.07-7.2-.18-10.27-.33-21.55-1.07-19.58-59.78-19.58-59.78h25.45Z"/>
          <path class="cls-17" d="M938.31,64.92h40.17l-4.39,60.01c-10.12.12-21.11.24-31.37.24l-4.41-60.25Z"/>
          <path class="cls-17" d="M999.38,124.7c-2.81,0-6.02.02-9.51.05l4.37-59.83h24.58s.93,59.78-19.45,59.78Z"/>
          <path class="cls-5" d="M942.72,125.17c-5.56,0-10.9-.04-15.78-.14l-4.4-60.11h15.77l4.41,60.25Z"/>
          <path class="cls-5" d="M994.24,64.92l-4.37,59.83c-4.81.05-10.16.11-15.78.18l4.39-60.01h15.77Z"/>
          <path class="cls-5" d="M1018.55,36.38h-121.75s2.24-8.15,7.04-16.31h107.91c4.78,8.15,6.8,16.31,6.8,16.31Z"/>
        </g>
        <g>
          <polygon class="cls-9" points="891.38 524.08 1013.11 524.08 994.11 558.45 907.41 558.45 891.38 524.08"/>
          <path class="cls-17" d="M1006.09,507.77h-107.91c4.79-8.15,12.13-16.31,22.32-16.31,20.39,0,41.35-.58,62.9,0,10.68.29,18.01,8.3,22.69,16.31Z"/>
          <path class="cls-17" d="M916.87,552.62l4.4,60.11c-3.74-.07-7.2-.18-10.27-.33-21.55-1.07-19.58-59.78-19.58-59.78h25.45Z"/>
          <path class="cls-17" d="M932.64,552.62h40.17l-4.39,60.01c-10.12.12-21.11.24-31.37.24l-4.41-60.25Z"/>
          <path class="cls-17" d="M993.71,612.4c-2.81,0-6.02.02-9.51.05l4.37-59.83h24.58s.93,59.78-19.45,59.78Z"/>
          <path class="cls-5" d="M937.05,612.87c-5.56,0-10.9-.04-15.78-.14l-4.4-60.11h15.77l4.41,60.25Z"/>
          <path class="cls-5" d="M988.58,552.62l-4.37,59.83c-4.81.05-10.16.11-15.78.18l4.39-60.01h15.77Z"/>
          <path class="cls-5" d="M1012.89,524.08h-121.75s2.24-8.15,7.04-16.31h107.91c4.78,8.15,6.8,16.31,6.8,16.31Z"/>
        </g>
        <g>
          <g>
            <polygon class="cls-5" points="922.77 409.96 922.77 448.77 946.92 459.87 946.92 420.85 922.77 409.96"/>
            <polygon class="cls-17" points="979.41 410.12 979.41 448.93 946.82 460.03 946.82 421.01 979.41 410.12"/>
            <polygon class="cls-8" points="922.77 409.96 952.49 400.17 979.41 410.12 946.82 421.01 922.77 409.96"/>
          </g>
          <g>
            <path class="cls-18" d="M962.31,440.31v-.55c0-1.96.62-3.96,3.32-7.48,1.88-2.45,2.23-3.89,2.23-5.27,0-1.61-1-2.99-3.45-2.05s-3.54,2.94-3.87,5.35l-3.35,1.32c.14-2.38,1.64-7.36,7.28-9.48,5.17-1.94,6.85.95,6.86,3.58,0,2.37-.76,4.23-3.29,7.55-1.68,2.23-2.22,3.65-2.22,5.27v.31s-3.51,1.46-3.51,1.46Z"/>
            <polygon class="cls-18" points="962.32 447.74 962.31 442.71 965.83 441.23 965.84 446.23 962.32 447.74"/>
          </g>
        </g>
        <g>
          <polygon class="cls-9" points="886.35 768.3 1008.08 768.3 989.08 802.67 902.37 802.67 886.35 768.3"/>
          <path class="cls-17" d="M1001.06,751.99h-107.91c4.79-8.15,12.13-16.31,22.32-16.31,20.39,0,41.35-.58,62.9,0,10.68.29,18.01,8.3,22.69,16.31Z"/>
          <path class="cls-17" d="M911.84,796.84l4.4,60.11c-3.74-.07-7.2-.18-10.27-.33-21.55-1.07-19.58-59.78-19.58-59.78h25.45Z"/>
          <path class="cls-17" d="M927.61,796.84h40.17l-4.39,60.01c-10.12.12-21.11.24-31.37.24l-4.41-60.25Z"/>
          <path class="cls-17" d="M988.67,856.62c-2.81,0-6.02.02-9.51.05l4.37-59.83h24.58s.93,59.78-19.45,59.78Z"/>
          <path class="cls-5" d="M932.01,857.09c-5.56,0-10.9-.04-15.78-.14l-4.4-60.11h15.77l4.41,60.25Z"/>
          <path class="cls-5" d="M983.54,796.84l-4.37,59.83c-4.81.05-10.16.11-15.78.18l4.39-60.01h15.77Z"/>
          <path class="cls-5" d="M1007.85,768.3h-121.75s2.24-8.15,7.04-16.31h107.91c4.78,8.15,6.8,16.31,6.8,16.31Z"/>
        </g>
        <g>
          <g>
            <polygon class="cls-5" points="917.73 654.18 917.73 692.99 941.88 704.09 941.88 665.07 917.73 654.18"/>
            <polygon class="cls-17" points="974.38 654.34 974.38 693.15 941.78 704.25 941.78 665.23 974.38 654.34"/>
            <polygon class="cls-8" points="917.73 654.18 947.46 644.39 974.38 654.34 941.78 665.23 917.73 654.18"/>
          </g>
          <g>
            <path class="cls-18" d="M957.28,684.53v-.55c0-1.96.62-3.96,3.32-7.48,1.88-2.45,2.23-3.89,2.23-5.27,0-1.61-1-2.99-3.45-2.05s-3.54,2.94-3.87,5.35l-3.35,1.32c.14-2.38,1.64-7.36,7.28-9.48,5.17-1.94,6.85.95,6.86,3.58,0,2.37-.76,4.23-3.29,7.55-1.68,2.23-2.22,3.65-2.22,5.27v.31s-3.51,1.46-3.51,1.46Z"/>
            <polygon class="cls-18" points="957.28 691.97 957.28 686.93 960.8 685.45 960.8 690.45 957.28 691.97"/>
          </g>
        </g>
      </g>
      <g>
        <polygon class="cls-9" points="1864.39 228.64 1986.12 228.64 1967.12 263 1880.42 263 1864.39 228.64"/>
        <path class="cls-17" d="M1979.1,212.33h-107.91c4.79-8.15,12.13-16.31,22.32-16.31,20.39,0,41.35-.58,62.9,0,10.68.29,18.01,8.3,22.69,16.31Z"/>
        <path class="cls-17" d="M1889.88,257.18l4.4,60.11c-3.74-.07-7.2-.18-10.27-.33-21.55-1.07-19.58-59.78-19.58-59.78h25.45Z"/>
        <path class="cls-17" d="M1905.65,257.18h40.17l-4.39,60.01c-10.12.12-21.11.24-31.37.24l-4.41-60.25Z"/>
        <path class="cls-5" d="M1910.06,317.43c-5.56,0-10.9-.04-15.78-.14l-4.4-60.11h15.77l4.41,60.25Z"/>
        <path class="cls-5" d="M1985.9,228.64h-121.75s2.24-8.15,7.04-16.31h107.91c4.78,8.15,6.8,16.31,6.8,16.31Z"/>
      </g>
      <g>
        <polygon class="cls-5" points="1895.78 114.52 1895.78 153.33 1919.93 164.43 1919.93 125.41 1895.78 114.52"/>
        <polygon class="cls-17" points="1952.42 114.67 1952.42 153.49 1919.82 164.59 1919.82 125.57 1952.42 114.67"/>
        <polygon class="cls-8" points="1895.78 114.52 1925.5 104.72 1952.42 114.67 1919.82 125.57 1895.78 114.52"/>
      </g>
      <g>
        <polygon class="cls-9" points="1869.26 -15.14 1990.99 -15.14 1971.99 19.23 1885.29 19.23 1869.26 -15.14"/>
        <path class="cls-17" d="M1894.75,13.4l4.4,60.11c-3.74-.07-7.2-.18-10.27-.33-21.55-1.07-19.58-59.78-19.58-59.78h25.45Z"/>
        <path class="cls-17" d="M1910.52,13.4h40.17l-4.39,60.01c-10.12.12-21.11.24-31.37.24l-4.41-60.25Z"/>
        <path class="cls-5" d="M1914.93,73.65c-5.56,0-10.9-.04-15.78-.14l-4.4-60.11h15.77l4.41,60.25Z"/>
      </g>
      <g>
        <polygon class="cls-9" points="1863.59 472.56 1985.32 472.56 1966.32 506.93 1879.62 506.93 1863.59 472.56"/>
        <path class="cls-17" d="M1978.3,456.26h-107.91c4.79-8.15,12.13-16.31,22.32-16.31,20.39,0,41.35-.58,62.9,0,10.68.29,18.01,8.3,22.69,16.31Z"/>
        <path class="cls-17" d="M1889.08,501.1l4.4,60.11c-3.74-.07-7.2-.18-10.27-.33-21.55-1.07-19.58-59.78-19.58-59.78h25.45Z"/>
        <path class="cls-17" d="M1904.85,501.1h40.17l-4.39,60.01c-10.12.12-21.11.24-31.37.24l-4.41-60.25Z"/>
        <path class="cls-5" d="M1909.26,561.35c-5.56,0-10.9-.04-15.78-.14l-4.4-60.11h15.77l4.41,60.25Z"/>
        <path class="cls-5" d="M1985.1,472.56h-121.75s2.24-8.15,7.04-16.31h107.91c4.78,8.15,6.8,16.31,6.8,16.31Z"/>
      </g>
      <g>
        <polygon class="cls-5" points="1894.98 358.44 1894.98 397.25 1919.13 408.35 1919.13 369.34 1894.98 358.44"/>
        <polygon class="cls-17" points="1951.62 358.6 1951.62 397.41 1919.03 408.51 1919.03 369.49 1951.62 358.6"/>
        <polygon class="cls-8" points="1894.98 358.44 1924.7 348.65 1951.62 358.6 1919.03 369.49 1894.98 358.44"/>
      </g>
      <g>
        <polygon class="cls-9" points="1858.56 716.79 1980.29 716.79 1961.29 751.15 1874.58 751.15 1858.56 716.79"/>
        <path class="cls-17" d="M1973.27,700.48h-107.91c4.79-8.15,12.13-16.31,22.32-16.31,20.39,0,41.35-.58,62.9,0,10.68.29,18.01,8.3,22.69,16.31Z"/>
        <path class="cls-17" d="M1884.05,745.33l4.4,60.11c-3.74-.07-7.2-.18-10.27-.33-21.55-1.07-19.58-59.78-19.58-59.78h25.45Z"/>
        <path class="cls-17" d="M1899.82,745.33h40.17l-4.39,60.01c-10.12.12-21.11.24-31.37.24l-4.41-60.25Z"/>
        <path class="cls-5" d="M1904.22,805.57c-5.56,0-10.9-.04-15.78-.14l-4.4-60.11h15.77l4.41,60.25Z"/>
        <path class="cls-5" d="M1980.06,716.79h-121.75s2.24-8.15,7.04-16.31h107.91c4.78,8.15,6.8,16.31,6.8,16.31Z"/>
      </g>
      <g>
        <polygon class="cls-5" points="1889.94 602.66 1889.94 641.47 1914.09 652.57 1914.09 613.56 1889.94 602.66"/>
        <polygon class="cls-17" points="1946.59 602.82 1946.59 641.63 1913.99 652.73 1913.99 613.72 1946.59 602.82"/>
        <polygon class="cls-8" points="1889.94 602.66 1919.67 592.87 1946.59 602.82 1913.99 613.72 1889.94 602.66"/>
      </g>
      <g>
        <polygon class="cls-9" points="1695.21 359.54 1816.94 359.54 1797.94 393.9 1711.24 393.9 1695.21 359.54"/>
        <path class="cls-17" d="M1809.92,343.23h-107.91c4.79-8.15,12.13-16.31,22.32-16.31,20.39,0,41.35-.58,62.9,0,10.68.29,18.01,8.3,22.69,16.31Z"/>
        <path class="cls-17" d="M1720.71,388.08l4.4,60.11c-3.74-.07-7.2-.18-10.27-.33-21.55-1.07-19.58-59.78-19.58-59.78h25.45Z"/>
        <path class="cls-17" d="M1736.47,388.08h40.17l-4.39,60.01c-10.12.12-21.11.24-31.37.24l-4.41-60.25Z"/>
        <path class="cls-17" d="M1797.54,447.85c-2.81,0-6.02.02-9.51.05l4.37-59.83h24.58s.93,59.78-19.45,59.78Z"/>
        <path class="cls-5" d="M1740.88,448.33c-5.56,0-10.9-.04-15.78-.14l-4.4-60.11h15.77l4.41,60.25Z"/>
        <path class="cls-5" d="M1792.41,388.08l-4.37,59.83c-4.81.05-10.16.11-15.78.18l4.39-60.01h15.77Z"/>
        <path class="cls-5" d="M1816.72,359.54h-121.75s2.24-8.15,7.04-16.31h107.91c4.78,8.15,6.8,16.31,6.8,16.31Z"/>
      </g>
      <g>
        <g>
          <polygon class="cls-5" points="1726.6 245.42 1726.6 284.23 1750.75 295.33 1750.75 256.31 1726.6 245.42"/>
          <polygon class="cls-17" points="1783.25 245.57 1783.25 284.39 1750.65 295.49 1750.65 256.47 1783.25 245.57"/>
          <polygon class="cls-8" points="1726.6 245.42 1756.32 235.62 1783.25 245.57 1750.65 256.47 1726.6 245.42"/>
        </g>
        <g>
          <path class="cls-18" d="M1766.14,275.77v-.55c0-1.96.62-3.96,3.32-7.48,1.88-2.45,2.23-3.89,2.23-5.27,0-1.61-1-2.99-3.45-2.05s-3.54,2.94-3.87,5.35l-3.35,1.32c.14-2.38,1.64-7.36,7.28-9.48,5.17-1.94,6.85.95,6.86,3.58,0,2.37-.76,4.23-3.29,7.55-1.68,2.23-2.22,3.65-2.22,5.27v.31s-3.51,1.46-3.51,1.46Z"/>
          <polygon class="cls-18" points="1766.15 283.2 1766.15 278.17 1769.66 276.69 1769.67 281.68 1766.15 283.2"/>
        </g>
      </g>
      <g>
        <polygon class="cls-9" points="1700.08 115.76 1821.81 115.76 1802.81 150.13 1716.11 150.13 1700.08 115.76"/>
        <path class="cls-17" d="M1814.79,99.45h-107.91c4.79-8.15,12.13-16.31,22.32-16.31,20.39,0,41.35-.58,62.9,0,10.68.29,18.01,8.3,22.69,16.31Z"/>
        <path class="cls-17" d="M1725.57,144.3l4.4,60.11c-3.74-.07-7.2-.18-10.27-.33-21.55-1.07-19.58-59.78-19.58-59.78h25.45Z"/>
        <path class="cls-17" d="M1741.34,144.3h40.17l-4.39,60.01c-10.12.12-21.11.24-31.37.24l-4.41-60.25Z"/>
        <path class="cls-17" d="M1802.41,204.08c-2.81,0-6.02.02-9.51.05l4.37-59.83h24.58s.93,59.78-19.45,59.78Z"/>
        <path class="cls-5" d="M1745.75,204.55c-5.56,0-10.9-.04-15.78-.14l-4.4-60.11h15.77l4.41,60.25Z"/>
        <path class="cls-5" d="M1797.28,144.3l-4.37,59.83c-4.81.05-10.16.11-15.78.18l4.39-60.01h15.77Z"/>
        <path class="cls-5" d="M1821.59,115.76h-121.75s2.24-8.15,7.04-16.31h107.91c4.78,8.15,6.8,16.31,6.8,16.31Z"/>
      </g>
      <g>
        <g>
          <polygon class="cls-5" points="1731.47 1.64 1731.47 40.45 1755.62 51.55 1755.62 12.53 1731.47 1.64"/>
          <polygon class="cls-17" points="1788.12 1.8 1788.12 40.61 1755.52 51.71 1755.52 12.69 1788.12 1.8"/>
          <polygon class="cls-8" points="1731.47 1.64 1761.19 -8.15 1788.12 1.8 1755.52 12.69 1731.47 1.64"/>
        </g>
        <g>
          <path class="cls-18" d="M1771.01,31.99v-.55c0-1.96.62-3.96,3.32-7.48,1.88-2.45,2.23-3.89,2.23-5.27,0-1.61-1-2.99-3.45-2.05s-3.54,2.94-3.87,5.35l-3.35,1.32c.14-2.38,1.64-7.36,7.28-9.48,5.17-1.94,6.85.95,6.86,3.58,0,2.37-.76,4.23-3.29,7.55-1.68,2.23-2.22,3.65-2.22,5.27v.31s-3.51,1.46-3.51,1.46Z"/>
          <polygon class="cls-18" points="1771.02 39.43 1771.02 34.39 1774.53 32.91 1774.54 37.91 1771.02 39.43"/>
        </g>
      </g>
      <g>
        <polygon class="cls-9" points="1694.41 603.46 1816.14 603.46 1797.14 637.83 1710.44 637.83 1694.41 603.46"/>
        <path class="cls-17" d="M1809.13,587.16h-107.91c4.79-8.15,12.13-16.31,22.32-16.31,20.39,0,41.35-.58,62.9,0,10.68.29,18.01,8.3,22.69,16.31Z"/>
        <path class="cls-17" d="M1719.91,632l4.4,60.11c-3.74-.07-7.2-.18-10.27-.33-21.55-1.07-19.58-59.78-19.58-59.78h25.45Z"/>
        <path class="cls-17" d="M1735.67,632h40.17l-4.39,60.01c-10.12.12-21.11.24-31.37.24l-4.41-60.25Z"/>
        <path class="cls-17" d="M1796.74,691.78c-2.81,0-6.02.02-9.51.05l4.37-59.83h24.58s.93,59.78-19.45,59.78Z"/>
        <path class="cls-5" d="M1740.08,692.25c-5.56,0-10.9-.04-15.78-.14l-4.4-60.11h15.77l4.41,60.25Z"/>
        <path class="cls-5" d="M1791.61,632l-4.37,59.83c-4.81.05-10.16.11-15.78.18l4.39-60.01h15.77Z"/>
        <path class="cls-5" d="M1815.92,603.46h-121.75s2.24-8.15,7.04-16.31h107.91c4.78,8.15,6.8,16.31,6.8,16.31Z"/>
      </g>
      <g>
        <g>
          <polygon class="cls-5" points="1725.8 489.34 1725.8 528.15 1749.95 539.25 1749.95 500.24 1725.8 489.34"/>
          <polygon class="cls-17" points="1782.45 489.5 1782.45 528.31 1749.85 539.41 1749.85 500.39 1782.45 489.5"/>
          <polygon class="cls-8" points="1725.8 489.34 1755.53 479.55 1782.45 489.5 1749.85 500.39 1725.8 489.34"/>
        </g>
        <g>
          <path class="cls-18" d="M1765.35,519.69v-.55c0-1.96.62-3.96,3.32-7.48,1.88-2.45,2.23-3.89,2.23-5.27,0-1.61-1-2.99-3.45-2.05s-3.54,2.94-3.87,5.35l-3.35,1.32c.14-2.38,1.64-7.36,7.28-9.48,5.17-1.94,6.85.95,6.86,3.58,0,2.37-.76,4.23-3.29,7.55-1.68,2.23-2.22,3.65-2.22,5.27v.31s-3.51,1.46-3.51,1.46Z"/>
          <polygon class="cls-18" points="1765.35 527.13 1765.35 522.09 1768.86 520.62 1768.87 525.61 1765.35 527.13"/>
        </g>
      </g>
      <g>
        <polygon class="cls-9" points="1689.38 847.69 1811.11 847.69 1792.11 882.05 1705.41 882.05 1689.38 847.69"/>
        <path class="cls-17" d="M1804.09,831.38h-107.91c4.79-8.15,12.13-16.31,22.32-16.31,20.39,0,41.35-.58,62.9,0,10.68.29,18.01,8.3,22.69,16.31Z"/>
        <path class="cls-17" d="M1714.87,876.23l4.4,60.11c-3.74-.07-7.2-.18-10.27-.33-21.55-1.07-19.58-59.78-19.58-59.78h25.45Z"/>
        <path class="cls-17" d="M1730.64,876.23h40.17l-4.39,60.01c-10.12.12-21.11.24-31.37.24l-4.41-60.25Z"/>
        <path class="cls-17" d="M1791.71,936c-2.81,0-6.02.02-9.51.05l4.37-59.83h24.58s.93,59.78-19.45,59.78Z"/>
        <path class="cls-5" d="M1735.05,936.47c-5.56,0-10.9-.04-15.78-.14l-4.4-60.11h15.77l4.41,60.25Z"/>
        <path class="cls-5" d="M1786.58,876.23l-4.37,59.83c-4.81.05-10.16.11-15.78.18l4.39-60.01h15.77Z"/>
        <path class="cls-5" d="M1810.89,847.69h-121.75s2.24-8.15,7.04-16.31h107.91c4.78,8.15,6.8,16.31,6.8,16.31Z"/>
      </g>
      <g>
        <g>
          <polygon class="cls-5" points="1720.77 733.56 1720.77 772.37 1744.92 783.47 1744.92 744.46 1720.77 733.56"/>
          <polygon class="cls-17" points="1777.42 733.72 1777.42 772.53 1744.82 783.63 1744.82 744.62 1777.42 733.72"/>
          <polygon class="cls-8" points="1720.77 733.56 1750.49 723.77 1777.42 733.72 1744.82 744.62 1720.77 733.56"/>
        </g>
        <g>
          <path class="cls-18" d="M1760.31,763.92v-.55c0-1.96.62-3.96,3.32-7.48,1.88-2.45,2.23-3.89,2.23-5.27,0-1.61-1-2.99-3.45-2.05s-3.54,2.94-3.87,5.35l-3.35,1.32c.14-2.38,1.64-7.36,7.28-9.48,5.17-1.94,6.85.95,6.86,3.58,0,2.37-.76,4.23-3.29,7.55-1.68,2.23-2.22,3.65-2.22,5.27v.31s-3.51,1.46-3.51,1.46Z"/>
          <polygon class="cls-18" points="1760.32 771.35 1760.32 766.32 1763.83 764.84 1763.84 769.83 1760.32 771.35"/>
        </g>
      </g>
      <g>
        <polygon class="cls-9" points="1530.63 254.67 1652.36 254.67 1633.36 289.03 1546.66 289.03 1530.63 254.67"/>
        <path class="cls-17" d="M1645.34,238.36h-107.91c4.79-8.15,12.13-16.31,22.32-16.31,20.39,0,41.35-.58,62.9,0,10.68.29,18.01,8.3,22.69,16.31Z"/>
        <path class="cls-17" d="M1556.12,283.21l4.4,60.11c-3.74-.07-7.2-.18-10.27-.33-21.55-1.07-19.58-59.78-19.58-59.78h25.45Z"/>
        <path class="cls-17" d="M1571.89,283.21h40.17l-4.39,60.01c-10.12.12-21.11.24-31.37.24l-4.41-60.25Z"/>
        <path class="cls-17" d="M1632.96,342.98c-2.81,0-6.02.02-9.51.05l4.37-59.83h24.58s.93,59.78-19.45,59.78Z"/>
        <path class="cls-5" d="M1576.3,343.45c-5.56,0-10.9-.04-15.78-.14l-4.4-60.11h15.77l4.41,60.25Z"/>
        <path class="cls-5" d="M1627.83,283.21l-4.37,59.83c-4.81.05-10.16.11-15.78.18l4.39-60.01h15.77Z"/>
        <path class="cls-5" d="M1652.14,254.67h-121.75s2.24-8.15,7.04-16.31h107.91c4.78,8.15,6.8,16.31,6.8,16.31Z"/>
      </g>
      <g>
        <g>
          <polygon class="cls-5" points="1562.02 140.54 1562.02 179.35 1586.17 190.45 1586.17 151.44 1562.02 140.54"/>
          <polygon class="cls-17" points="1618.67 140.7 1618.67 179.51 1586.07 190.61 1586.07 151.6 1618.67 140.7"/>
          <polygon class="cls-8" points="1562.02 140.54 1591.74 130.75 1618.67 140.7 1586.07 151.6 1562.02 140.54"/>
        </g>
        <g>
          <path class="cls-18" d="M1601.56,170.9v-.55c0-1.96.62-3.96,3.32-7.48,1.88-2.45,2.23-3.89,2.23-5.27,0-1.61-1-2.99-3.45-2.05s-3.54,2.94-3.87,5.35l-3.35,1.32c.14-2.38,1.64-7.36,7.28-9.48,5.17-1.94,6.85.95,6.86,3.58,0,2.37-.76,4.23-3.29,7.55-1.68,2.23-2.22,3.65-2.22,5.27v.31s-3.51,1.46-3.51,1.46Z"/>
          <polygon class="cls-18" points="1601.57 178.33 1601.56 173.3 1605.08 171.82 1605.09 176.81 1601.57 178.33"/>
        </g>
      </g>
      <g>
        <polygon class="cls-9" points="1535.5 10.89 1657.23 10.89 1638.23 45.25 1551.53 45.25 1535.5 10.89"/>
        <path class="cls-17" d="M1560.99,39.43l4.4,60.11c-3.74-.07-7.2-.18-10.27-.33-21.55-1.07-19.58-59.78-19.58-59.78h25.45Z"/>
        <path class="cls-17" d="M1576.76,39.43h40.17l-4.39,60.01c-10.12.12-21.11.24-31.37.24l-4.41-60.25Z"/>
        <path class="cls-17" d="M1637.83,99.2c-2.81,0-6.02.02-9.51.05l4.37-59.83h24.58s.93,59.78-19.45,59.78Z"/>
        <path class="cls-5" d="M1581.17,99.68c-5.56,0-10.9-.04-15.78-.14l-4.4-60.11h15.77l4.41,60.25Z"/>
        <path class="cls-5" d="M1632.7,39.43l-4.37,59.83c-4.81.05-10.16.11-15.78.18l4.39-60.01h15.77Z"/>
        <path class="cls-5" d="M1657.01,10.89h-121.75s2.24-8.15,7.04-16.31h107.91c4.78,8.15,6.8,16.31,6.8,16.31Z"/>
      </g>
      <g>
        <polygon class="cls-9" points="1529.83 498.59 1651.56 498.59 1632.56 532.95 1545.86 532.95 1529.83 498.59"/>
        <path class="cls-17" d="M1644.54,482.28h-107.91c4.79-8.15,12.13-16.31,22.32-16.31,20.39,0,41.35-.58,62.9,0,10.68.29,18.01,8.3,22.69,16.31Z"/>
        <path class="cls-17" d="M1555.33,527.13l4.4,60.11c-3.74-.07-7.2-.18-10.27-.33-21.55-1.07-19.58-59.78-19.58-59.78h25.45Z"/>
        <path class="cls-17" d="M1571.09,527.13h40.17l-4.39,60.01c-10.12.12-21.11.24-31.37.24l-4.41-60.25Z"/>
        <path class="cls-17" d="M1632.16,586.91c-2.81,0-6.02.02-9.51.05l4.37-59.83h24.58s.93,59.78-19.45,59.78Z"/>
        <path class="cls-5" d="M1575.5,587.38c-5.56,0-10.9-.04-15.78-.14l-4.4-60.11h15.77l4.41,60.25Z"/>
        <path class="cls-5" d="M1627.03,527.13l-4.37,59.83c-4.81.05-10.16.11-15.78.18l4.39-60.01h15.77Z"/>
        <path class="cls-5" d="M1651.34,498.59h-121.75s2.24-8.15,7.04-16.31h107.91c4.78,8.15,6.8,16.31,6.8,16.31Z"/>
      </g>
      <g>
        <g>
          <polygon class="cls-5" points="1561.22 384.47 1561.22 423.28 1585.37 434.38 1585.37 395.36 1561.22 384.47"/>
          <polygon class="cls-17" points="1617.87 384.63 1617.87 423.44 1585.27 434.54 1585.27 395.52 1617.87 384.63"/>
          <polygon class="cls-8" points="1561.22 384.47 1590.94 374.68 1617.87 384.63 1585.27 395.52 1561.22 384.47"/>
        </g>
        <g>
          <path class="cls-18" d="M1600.77,414.82v-.55c0-1.96.62-3.96,3.32-7.48,1.88-2.45,2.23-3.89,2.23-5.27,0-1.61-1-2.99-3.45-2.05s-3.54,2.94-3.87,5.35l-3.35,1.32c.14-2.38,1.64-7.36,7.28-9.48,5.17-1.94,6.85.95,6.86,3.58,0,2.37-.76,4.23-3.29,7.55-1.68,2.23-2.22,3.65-2.22,5.27v.31s-3.51,1.46-3.51,1.46Z"/>
          <polygon class="cls-18" points="1600.77 422.25 1600.77 417.22 1604.28 415.74 1604.29 420.74 1600.77 422.25"/>
        </g>
      </g>
      <g>
        <g>
          <polygon class="cls-5" points="1556.19 628.69 1556.19 667.5 1580.34 678.6 1580.34 639.58 1556.19 628.69"/>
          <polygon class="cls-17" points="1612.83 628.85 1612.83 667.66 1580.24 678.76 1580.24 639.74 1612.83 628.85"/>
          <polygon class="cls-8" points="1556.19 628.69 1585.91 618.9 1612.83 628.85 1580.24 639.74 1556.19 628.69"/>
        </g>
        <g>
          <path class="cls-18" d="M1595.73,659.04v-.55c0-1.96.62-3.96,3.32-7.48,1.88-2.45,2.23-3.89,2.23-5.27,0-1.61-1-2.99-3.45-2.05s-3.54,2.94-3.87,5.35l-3.35,1.32c.14-2.38,1.64-7.36,7.28-9.48,5.17-1.94,6.85.95,6.86,3.58,0,2.37-.76,4.23-3.29,7.55-1.68,2.23-2.22,3.65-2.22,5.27v.31s-3.51,1.46-3.51,1.46Z"/>
          <polygon class="cls-18" points="1595.74 666.48 1595.73 661.44 1599.25 659.96 1599.26 664.96 1595.74 666.48"/>
        </g>
      </g>
    </g>
  </g>
  <g id="Road_Construction">
    <g class="cls-13">
      <rect class="cls-17" x="898.87" y="-128.74" width="1209.87" height="1285.13"/>
      <g>
        <polyline class="cls-2" points="1366.5 189.67 1498.68 188.3 1527.54 262.15 1473.99 357.11 1381.01 307.68 1343.61 410.72 1434.59 530.75 1561.31 430.73 1569.89 337.73 1684.97 322.45 1655.42 258.97 1730.1 141.4 1839.4 234.55 1783.69 434.72 1639.26 463.14 1534.72 621.46 1305.75 631.64"/>
        <ellipse class="cls-10" cx="1497.94" cy="191.29" rx="9.38" ry="9.74"/>
        <ellipse class="cls-10" cx="1367.59" cy="189.53" rx="9.38" ry="9.74"/>
        <ellipse class="cls-10" cx="1526.25" cy="263.21" rx="9.38" ry="9.74"/>
        <ellipse class="cls-10" cx="1470.73" cy="354.36" rx="9.38" ry="9.74"/>
        <ellipse class="cls-10" cx="1382.28" cy="308.91" rx="9.38" ry="9.74"/>
        <ellipse class="cls-10" cx="1343.61" cy="410.52" rx="9.38" ry="9.74"/>
        <ellipse class="cls-10" cx="1433.83" cy="529.12" rx="9.38" ry="9.74"/>
        <ellipse class="cls-10" cx="1562.53" cy="427.1" rx="9.38" ry="9.74"/>
        <ellipse class="cls-10" cx="1683.03" cy="326.18" rx="9.38" ry="9.74"/>
        <ellipse class="cls-10" cx="1655.48" cy="255.88" rx="9.38" ry="9.74"/>
        <ellipse class="cls-10" cx="1728.73" cy="141.58" rx="9.38" ry="9.74"/>
        <ellipse class="cls-10" cx="1838.78" cy="231.54" rx="9.38" ry="9.74"/>
        <ellipse class="cls-10" cx="1783.34" cy="431.88" rx="9.38" ry="9.74"/>
        <ellipse class="cls-10" cx="1638.43" cy="460.94" rx="9.38" ry="9.74"/>
        <ellipse class="cls-10" cx="1534.17" cy="621.53" rx="9.38" ry="9.74"/>
        <ellipse class="cls-10" cx="1315.12" cy="630.97" rx="9.38" ry="9.74"/>
      </g>
      <g>
        <polyline class="cls-3" points="1773.66 631.38 1683.79 508.15 1873.74 510.38 1883.95 327.01 1913.57 142.51 1798.57 113.78 1658.68 105.37 1608.35 195.91 1514.42 96.69"/>
        <ellipse class="cls-6" cx="1773.68" cy="629.68" rx="9.38" ry="9.74"/>
        <ellipse class="cls-6" cx="1682.59" cy="509.8" rx="9.38" ry="9.74"/>
        <ellipse class="cls-6" cx="1885.23" cy="323.93" rx="9.38" ry="9.74"/>
        <ellipse class="cls-6" cx="1874.78" cy="511.59" rx="9.38" ry="9.74"/>
        <ellipse class="cls-6" cx="1799.13" cy="113.81" rx="9.38" ry="9.74"/>
        <ellipse class="cls-6" cx="1662.01" cy="105.57" rx="9.38" ry="9.74"/>
        <ellipse class="cls-6" cx="1605.63" cy="195.18" rx="9.38" ry="9.74"/>
        <ellipse class="cls-6" cx="1514.42" cy="96.69" rx="9.38" ry="9.74"/>
      </g>
      <g>
        <polyline class="cls-3" points="1773.67 629.05 1732.86 776.02 1616.68 625.73 1466.59 731.57 1303.57 822.91 1352.45 930.89 1432.71 1045.78 1534.94 1029.01 1515.48 1164.25"/>
        <ellipse class="cls-6" cx="1772.32" cy="630.09" rx="9.74" ry="9.38" transform="translate(-8.22 1236.55) rotate(-38.38)"/>
        <ellipse class="cls-6" cx="1734.9" cy="775.93" rx="9.74" ry="9.38" transform="translate(-106.86 1244.83) rotate(-38.38)"/>
        <ellipse class="cls-6" cx="1463.38" cy="732.48" rx="9.74" ry="9.38" transform="translate(-138.56 1066.86) rotate(-38.38)"/>
        <ellipse class="cls-6" cx="1616.98" cy="624.16" rx="9.74" ry="9.38" transform="translate(-38.11 1138.82) rotate(-38.38)"/>
        <ellipse class="cls-6" cx="1352.13" cy="930.43" rx="9.74" ry="9.38" transform="translate(-285.5 1040.56) rotate(-38.38)"/>
        <ellipse class="cls-6" cx="1430.8" cy="1043.04" rx="9.74" ry="9.38" transform="translate(-338.42 1113.75) rotate(-38.38)"/>
        <ellipse class="cls-6" cx="1536.05" cy="1031.6" rx="9.74" ry="9.38" transform="translate(-308.57 1176.62) rotate(-38.38)"/>
      </g>
      <g>
        <polyline class="cls-2" points="1602.11 911.25 1687.57 810.39 1762.29 836.9 1799.06 939.53 1700.84 977.49 1754.28 1073.2 1904.58 1082.95 1911.87 921.67 1847.16 854.33 1910.91 757.31 1843.57 738.12 1803.53 604.71 1945.49 583.02 2060.4 756.13 1987.38 883.94 2038.7 1066.58 1896.56 1246.39"/>
        <ellipse class="cls-10" cx="1689.34" cy="812.91" rx="9.38" ry="9.74" transform="translate(-30.81 1558.43) rotate(-49.13)"/>
        <ellipse class="cls-10" cx="1602.71" cy="910.32" rx="9.38" ry="9.74" transform="translate(-134.41 1526.59) rotate(-49.13)"/>
        <ellipse class="cls-10" cx="1762.26" cy="838.57" rx="9.38" ry="9.74" transform="translate(-25.01 1622.43) rotate(-49.13)"/>
        <ellipse class="cls-10" cx="1794.85" cy="940.2" rx="9.38" ry="9.74" transform="translate(-90.59 1682.21) rotate(-49.13)"/>
        <ellipse class="cls-10" cx="1702.6" cy="977.34" rx="9.38" ry="9.74" transform="translate(-150.56 1625.28) rotate(-49.13)"/>
        <ellipse class="cls-10" cx="1754.14" cy="1073.07" rx="9.38" ry="9.74" transform="translate(-205.14 1697.35) rotate(-49.13)"/>
        <ellipse class="cls-10" cx="1902.85" cy="1082.46" rx="9.38" ry="9.74" transform="translate(-160.83 1813.05) rotate(-49.13)"/>
        <ellipse class="cls-10" cx="1909.93" cy="918.38" rx="9.38" ry="9.74" transform="translate(-34.31 1761.69) rotate(-49.13)"/>
        <ellipse class="cls-10" cx="1912.46" cy="761.22" rx="9.38" ry="9.74" transform="translate(85.4 1709.28) rotate(-49.13)"/>
        <ellipse class="cls-10" cx="1841.27" cy="736.05" rx="9.38" ry="9.74" transform="translate(79.83 1646.75) rotate(-49.13)"/>
        <ellipse class="cls-10" cx="1802.77" cy="605.87" rx="9.38" ry="9.74" transform="translate(164.96 1572.64) rotate(-49.13)"/>
      </g>
    </g>
  </g>
  <g id="_x34_IAR">
    <g class="cls-12">
      <g>
        <rect class="cls-9" x="1347.63" y="-103.23" width="591.66" height="1331.84"/>
        <g>
          <g>
            <path class="cls-4" d="M1496.28-103.23c0,444-.73,887.27-.73,1331.27"/>
            <path class="cls-4" d="M1644.2-103.23c0,444-.73,887.27-.73,1331.27"/>
            <path class="cls-4" d="M1792.11-103.23c0,444-.73,887.27-.73,1331.27"/>
          </g>
          <g>
            <line class="cls-4" x1="1346.16" y1="44.2" x2="1937.47" y2="44.2"/>
            <line class="cls-4" x1="1346.16" y1="192.26" x2="1937.47" y2="192.26"/>
            <line class="cls-4" x1="1346.16" y1="340.31" x2="1937.47" y2="340.31"/>
            <line class="cls-4" x1="1346.16" y1="1080.58" x2="1937.47" y2="1080.58"/>
            <line class="cls-4" x1="1346.16" y1="488.36" x2="1937.47" y2="488.36"/>
            <line class="cls-4" x1="1346.16" y1="636.42" x2="1937.47" y2="636.42"/>
            <line class="cls-4" x1="1346.16" y1="784.47" x2="1937.47" y2="784.47"/>
            <line class="cls-4" x1="1346.16" y1="932.53" x2="1937.47" y2="932.53"/>
          </g>
        </g>
        <circle class="cls-18" cx="1570.25" cy="266.7" r="57.84"/>
        <circle class="cls-18" cx="1716.42" cy="417.56" r="57.84"/>
        <circle class="cls-18" cx="1570.25" cy="415.22" r="57.84"/>
        <circle class="cls-7" cx="1716.42" cy="269.05" r="57.84"/>
        <circle class="cls-7" cx="1570.25" cy="117.4" r="57.84"/>
        <circle class="cls-7" cx="1570.25" cy="563.73" r="57.84"/>
        <circle class="cls-18" cx="1716.42" cy="710.68" r="57.84"/>
      </g>
      <path class="cls-1" d="M1597.6,114.05c-98.88,26.06-147.72,86.11-165.09,145.62-8.6,29.45-9.34,51.69-9.9,73.78-.61,23.71-1.02,47.25-10.73,79.35-14.37,47.48-58.16,64.82-58.16,78.92s57.22,29.12,60.97,46.97,10.65,156.77,42.21,170.05c38.61,16.24,54.19,12.57,102.24-7.52,52.8-22.07,40.33,62.01,39.4,121.19-.69,43.3-79.73,271.51-79.73,313.79,0,33.82,481.2-2.82,489.64-70.46,4.36-34.9-140.7-311.91-163.21-374.86-32.77-91.61-18.76-135.29,9.38-186.02,46-82.93,44.87-198.79,11.26-269.63-45.02-94.89-179.16-144.68-268.27-121.19Z"/>
    </g>
  </g>
</svg>